<svg xmlns="http://www.w3.org/2000/svg" xmlns:xlink="http://www.w3.org/1999/xlink" width="900" height="581.04"><rect width="900" height="581.04" rx="5" ry="5" class="a"/><svg y="0%" x="0%"><circle cx="20" cy="20" r="6" fill="#ff5f58"/><circle cx="40" cy="20" r="6" fill="#ffbd2e"/><circle cx="60" cy="20" r="6" fill="#18c132"/></svg><svg height="521.04" viewBox="0 0 86 52.104" width="860" x="15" xmlns="http://www.w3.org/2000/svg" xmlns:xlink="http://www.w3.org/1999/xlink" y="50"><style>@keyframes i{0%{transform:translateX(0)}.2%{transform:translateX(-86px)}8.6%{transform:translateX(-172px)}9.1%{transform:translateX(-258px)}9.6%{transform:translateX(-344px)}10.1%{transform:translateX(-430px)}10.5%{transform:translateX(-516px)}11%{transform:translateX(-602px)}11.5%{transform:translateX(-688px)}12%{transform:translateX(-774px)}12.5%{transform:translateX(-860px)}13%{transform:translateX(-946px)}13.5%{transform:translateX(-1032px)}14%{transform:translateX(-1118px)}14.5%{transform:translateX(-1204px)}15%{transform:translateX(-1290px)}15.5%{transform:translateX(-1376px)}16%{transform:translateX(-1462px)}16.5%{transform:translateX(-1548px)}17%{transform:translateX(-1634px)}17.5%{transform:translateX(-1720px)}17.9%{transform:translateX(-1806px)}18.4%{transform:translateX(-1892px)}20.8%{transform:translateX(-1978px)}20.9%{transform:translateX(-2064px)}37.6%{transform:translateX(-2150px)}37.9%{transform:translateX(-2236px)}46.6%{transform:translateX(-2322px)}46.8%{transform:translateX(-2494px)}63.5%{transform:translateX(-2580px)}63.8%{transform:translateX(-2666px)}64.1%{transform:translateX(-2752px)}64.4%{transform:translateX(-2838px)}73.2%{transform:translateX(-2924px)}73.3%{transform:translateX(-3096px)}90%{transform:translateX(-3182px)}90.3%{transform:translateX(-3268px)}90.7%{transform:translateX(-3354px)}90.9%{transform:translateX(-3440px)}91.2%{transform:translateX(-3526px)}99.9%{transform:translateX(-3612px)}to{transform:translateX(-3698px)}}.a{fill:#282d35}.f{fill:#b9c0cb;white-space:pre}</style><g font-family="Monaco,Consolas,Menlo,'Bitstream Vera Sans Mono','Powerline Symbols',monospace" font-size="1.67"><defs><symbol id="1"><text y="1.67" class="f">$</text></symbol><symbol id="2"><text y="1.67" class="f">$</text><text x="2.004" y="1.67" class="f">#</text></symbol><symbol id="3"><text y="1.67" class="f">$</text><text x="2.004" y="1.67" class="f">#</text><text x="4.008" y="1.67" class="f">This</text></symbol><symbol id="4"><text y="1.67" class="f">$</text><text x="2.004" y="1.67" class="f">#</text><text x="4.008" y="1.67" class="f">This</text><text x="9.018" y="1.67" class="f">is</text></symbol><symbol id="5"><text y="1.67" class="f">$</text><text x="2.004" y="1.67" class="f">#</text><text x="4.008" y="1.67" class="f">This</text><text x="9.018" y="1.67" class="f">is</text><text x="12.024" y="1.67" class="f">a</text></symbol><symbol id="6"><text y="1.67" class="f">$</text><text x="2.004" y="1.67" class="f">#</text><text x="4.008" y="1.67" class="f">This</text><text x="9.018" y="1.67" class="f">is</text><text x="12.024" y="1.67" class="f">a</text><text x="14.028" y="1.67" class="f">test</text></symbol><symbol id="7"><text y="1.67" class="f">$</text><text x="2.004" y="1.67" class="f">#</text><text x="4.008" y="1.67" class="f">This</text><text x="9.018" y="1.67" class="f">is</text><text x="12.024" y="1.67" class="f">a</text><text x="14.028" y="1.67" class="f">test</text><text x="19.038" y="1.67" class="f">demo</text></symbol><symbol id="8"><text y="1.67" class="f">$</text><text x="2.004" y="1.67" class="f">ls</text></symbol><symbol id="9"><text y="1.67" class="f">CONTRIBUTING.md</text><text x="24.048" y="1.67" class="f">README.md</text><text x="48.096" y="1.67" class="f">code-of-conduct.md</text></symbol><symbol id="10"><text y="1.67" class="f">LICENSE</text><text x="24.048" y="1.67" class="f">RELEASE.md</text><text x="48.096" y="1.67" class="f">examples</text></symbol><symbol id="11"><text y="1.67" class="f">OWNERS</text><text x="24.048" y="1.67" class="f">SECURITY.md</text><text x="48.096" y="1.67" class="f">scripts</text></symbol><symbol id="12"><text y="1.67" class="f">OWNERS_ALIASES</text><text x="24.048" y="1.67" class="f">SECURITY_CONTACTS</text></symbol><symbol id="13"><text y="1.67" class="f">$</text><text x="2.004" y="1.67" class="f">date</text></symbol><symbol id="14"><text y="1.67" class="f">Wed</text><text x="4.008" y="1.67" class="f">May</text><text x="9.018" y="1.67" class="f">1</text><text x="11.022" y="1.67" class="f">08:47:10</text><text x="20.04" y="1.67" class="f">PDT</text><text x="24.048" y="1.67" class="f">2024</text></symbol><symbol id="15"><text y="1.67" class="f">$</text><text x="2.004" y="1.67" class="f">clear</text></symbol><symbol id="a"><path fill="transparent" d="M0 0h86v24H0z"/></symbol><symbol id="b"><path fill="#6f7683" d="M0 0h1.102v2.171H0z"/></symbol></defs><path class="a" d="M0 0h86v52.104H0z"/><g style="animation-duration:6.030422s;animation-iteration-count:infinite;animation-name:i;animation-timing-function:steps(1,end)"><svg width="3784"><svg><use xlink:href="#a"/><use xlink:href="#b" x="-.004"/></svg><svg x="86"><use xlink:href="#a"/><use xlink:href="#b" x="1.996"/><use xlink:href="#1"/></svg><svg x="172"><use xlink:href="#a"/><use xlink:href="#b" x="2.996"/><use xlink:href="#2"/></svg><svg x="258"><use xlink:href="#a"/><use xlink:href="#b" x="3.996"/><use xlink:href="#2"/></svg><svg x="344"><use xlink:href="#a"/><use xlink:href="#b" x="4.996"/><text y="1.67" class="f">$</text><text x="2.004" y="1.67" class="f">#</text><text x="4.008" y="1.67" class="f">T</text></svg><svg x="430"><use xlink:href="#a"/><use xlink:href="#b" x="5.996"/><text y="1.67" class="f">$</text><text x="2.004" y="1.67" class="f">#</text><text x="4.008" y="1.67" class="f">Th</text></svg><svg x="516"><use xlink:href="#a"/><use xlink:href="#b" x="6.996"/><text y="1.67" class="f">$</text><text x="2.004" y="1.67" class="f">#</text><text x="4.008" y="1.67" class="f">Thi</text></svg><svg x="602"><use xlink:href="#a"/><use xlink:href="#b" x="7.996"/><use xlink:href="#3"/></svg><svg x="688"><use xlink:href="#a"/><use xlink:href="#b" x="8.996"/><use xlink:href="#3"/></svg><svg x="774"><use xlink:href="#a"/><use xlink:href="#b" x="9.996"/><text y="1.67" class="f">$</text><text x="2.004" y="1.67" class="f">#</text><text x="4.008" y="1.67" class="f">This</text><text x="9.018" y="1.67" class="f">i</text></svg><svg x="860"><use xlink:href="#a"/><use xlink:href="#b" x="10.996"/><use xlink:href="#4"/></svg><svg x="946"><use xlink:href="#a"/><use xlink:href="#b" x="11.996"/><use xlink:href="#4"/></svg><svg x="1032"><use xlink:href="#a"/><use xlink:href="#b" x="12.996"/><use xlink:href="#5"/></svg><svg x="1118"><use xlink:href="#a"/><use xlink:href="#b" x="13.996"/><use xlink:href="#5"/></svg><svg x="1204"><use xlink:href="#a"/><use xlink:href="#b" x="14.996"/><text y="1.67" class="f">$</text><text x="2.004" y="1.67" class="f">#</text><text x="4.008" y="1.67" class="f">This</text><text x="9.018" y="1.67" class="f">is</text><text x="12.024" y="1.67" class="f">a</text><text x="14.028" y="1.67" class="f">t</text></svg><svg x="1290"><use xlink:href="#a"/><use xlink:href="#b" x="15.996"/><text y="1.67" class="f">$</text><text x="2.004" y="1.67" class="f">#</text><text x="4.008" y="1.67" class="f">This</text><text x="9.018" y="1.67" class="f">is</text><text x="12.024" y="1.67" class="f">a</text><text x="14.028" y="1.67" class="f">te</text></svg><svg x="1376"><use xlink:href="#a"/><use xlink:href="#b" x="16.996"/><text y="1.67" class="f">$</text><text x="2.004" y="1.67" class="f">#</text><text x="4.008" y="1.67" class="f">This</text><text x="9.018" y="1.67" class="f">is</text><text x="12.024" y="1.67" class="f">a</text><text x="14.028" y="1.67" class="f">tes</text></svg><svg x="1462"><use xlink:href="#a"/><use xlink:href="#b" x="17.996"/><use xlink:href="#6"/></svg><svg x="1548"><use xlink:href="#a"/><use xlink:href="#b" x="18.996"/><use xlink:href="#6"/></svg><svg x="1634"><use xlink:href="#a"/><use xlink:href="#b" x="19.996"/><text y="1.67" class="f">$</text><text x="2.004" y="1.67" class="f">#</text><text x="4.008" y="1.67" class="f">This</text><text x="9.018" y="1.67" class="f">is</text><text x="12.024" y="1.67" class="f">a</text><text x="14.028" y="1.67" class="f">test</text><text x="19.038" y="1.67" class="f">d</text></svg><svg x="1720"><use xlink:href="#a"/><use xlink:href="#b" x="20.996"/><text y="1.67" class="f">$</text><text x="2.004" y="1.67" class="f">#</text><text x="4.008" y="1.67" class="f">This</text><text x="9.018" y="1.67" class="f">is</text><text x="12.024" y="1.67" class="f">a</text><text x="14.028" y="1.67" class="f">test</text><text x="19.038" y="1.67" class="f">de</text></svg><svg x="1806"><use xlink:href="#a"/><use xlink:href="#b" x="21.996"/><text y="1.67" class="f">$</text><text x="2.004" y="1.67" class="f">#</text><text x="4.008" y="1.67" class="f">This</text><text x="9.018" y="1.67" class="f">is</text><text x="12.024" y="1.67" class="f">a</text><text x="14.028" y="1.67" class="f">test</text><text x="19.038" y="1.67" class="f">dem</text></svg><svg x="1892"><use xlink:href="#a"/><use xlink:href="#b" x="22.996"/><use xlink:href="#7"/></svg><svg x="1978"><use xlink:href="#a"/><use xlink:href="#b" x="-.004" y="2.146"/><use xlink:href="#7"/></svg><svg x="2064"><use xlink:href="#a"/><use xlink:href="#b" x="1.996" y="2.146"/><use xlink:href="#7"/><use xlink:href="#1" y="2.171"/></svg><svg x="2150"><use xlink:href="#a"/><use xlink:href="#b" x="2.996" y="2.146"/><use xlink:href="#7"/><text y="3.841" class="f">$</text><text x="2.004" y="3.841" class="f">l</text></svg><svg x="2236"><use xlink:href="#a"/><use xlink:href="#b" x="3.996" y="2.146"/><use xlink:href="#7"/><use xlink:href="#8" y="2.171"/></svg><svg x="2322"><use xlink:href="#a"/><use xlink:href="#b" x="-.004" y="4.317"/><use xlink:href="#7"/><use xlink:href="#8" y="2.171"/></svg><svg x="2408"><use xlink:href="#a"/><use xlink:href="#b" x="-.004" y="13.001"/><use xlink:href="#7"/><use xlink:href="#8" y="2.171"/><use xlink:href="#9" y="4.342"/><use xlink:href="#10" y="6.513"/><use xlink:href="#11" y="8.684"/><use xlink:href="#12" y="10.855"/></svg><svg x="2494"><use xlink:href="#a"/><use xlink:href="#b" x="1.996" y="13.001"/><use xlink:href="#7"/><use xlink:href="#8" y="2.171"/><use xlink:href="#9" y="4.342"/><use xlink:href="#10" y="6.513"/><use xlink:href="#11" y="8.684"/><use xlink:href="#12" y="10.855"/><use xlink:href="#1" y="13.026"/></svg><svg x="2580"><use xlink:href="#a"/><use xlink:href="#b" x="2.996" y="13.001"/><use xlink:href="#7"/><use xlink:href="#8" y="2.171"/><use xlink:href="#9" y="4.342"/><use xlink:href="#10" y="6.513"/><use xlink:href="#11" y="8.684"/><use xlink:href="#12" y="10.855"/><text y="14.696" class="f">$</text><text x="2.004" y="14.696" class="f">d</text></svg><svg x="2666"><use xlink:href="#a"/><use xlink:href="#b" x="3.996" y="13.001"/><use xlink:href="#7"/><use xlink:href="#8" y="2.171"/><use xlink:href="#9" y="4.342"/><use xlink:href="#10" y="6.513"/><use xlink:href="#11" y="8.684"/><use xlink:href="#12" y="10.855"/><text y="14.696" class="f">$</text><text x="2.004" y="14.696" class="f">da</text></svg><svg x="2752"><use xlink:href="#a"/><use xlink:href="#b" x="4.996" y="13.001"/><use xlink:href="#7"/><use xlink:href="#8" y="2.171"/><use xlink:href="#9" y="4.342"/><use xlink:href="#10" y="6.513"/><use xlink:href="#11" y="8.684"/><use xlink:href="#12" y="10.855"/><text y="14.696" class="f">$</text><text x="2.004" y="14.696" class="f">dat</text></svg><svg x="2838"><use xlink:href="#a"/><use xlink:href="#b" x="5.996" y="13.001"/><use xlink:href="#7"/><use xlink:href="#8" y="2.171"/><use xlink:href="#9" y="4.342"/><use xlink:href="#10" y="6.513"/><use xlink:href="#11" y="8.684"/><use xlink:href="#12" y="10.855"/><use xlink:href="#13" y="13.026"/></svg><svg x="2924"><use xlink:href="#a"/><use xlink:href="#b" x="-.004" y="15.172"/><use xlink:href="#7"/><use xlink:href="#8" y="2.171"/><use xlink:href="#9" y="4.342"/><use xlink:href="#10" y="6.513"/><use xlink:href="#11" y="8.684"/><use xlink:href="#12" y="10.855"/><use xlink:href="#13" y="13.026"/></svg><svg x="3010"><use xlink:href="#a"/><use xlink:href="#b" x="-.004" y="17.343"/><use xlink:href="#7"/><use xlink:href="#8" y="2.171"/><use xlink:href="#9" y="4.342"/><use xlink:href="#10" y="6.513"/><use xlink:href="#11" y="8.684"/><use xlink:href="#12" y="10.855"/><use xlink:href="#13" y="13.026"/><use xlink:href="#14" y="15.197"/></svg><svg x="3096"><use xlink:href="#a"/><use xlink:href="#b" x="1.996" y="17.343"/><use xlink:href="#7"/><use xlink:href="#8" y="2.171"/><use xlink:href="#9" y="4.342"/><use xlink:href="#10" y="6.513"/><use xlink:href="#11" y="8.684"/><use xlink:href="#12" y="10.855"/><use xlink:href="#13" y="13.026"/><use xlink:href="#14" y="15.197"/><use xlink:href="#1" y="17.368"/></svg><svg x="3182"><use xlink:href="#a"/><use xlink:href="#b" x="2.996" y="17.343"/><use xlink:href="#7"/><use xlink:href="#8" y="2.171"/><use xlink:href="#9" y="4.342"/><use xlink:href="#10" y="6.513"/><use xlink:href="#11" y="8.684"/><use xlink:href="#12" y="10.855"/><use xlink:href="#13" y="13.026"/><use xlink:href="#14" y="15.197"/><text y="19.038" class="f">$</text><text x="2.004" y="19.038" class="f">c</text></svg><svg x="3268"><use xlink:href="#a"/><use xlink:href="#b" x="3.996" y="17.343"/><use xlink:href="#7"/><use xlink:href="#8" y="2.171"/><use xlink:href="#9" y="4.342"/><use xlink:href="#10" y="6.513"/><use xlink:href="#11" y="8.684"/><use xlink:href="#12" y="10.855"/><use xlink:href="#13" y="13.026"/><use xlink:href="#14" y="15.197"/><text y="19.038" class="f">$</text><text x="2.004" y="19.038" class="f">cl</text></svg><svg x="3354"><use xlink:href="#a"/><use xlink:href="#b" x="4.996" y="17.343"/><use xlink:href="#7"/><use xlink:href="#8" y="2.171"/><use xlink:href="#9" y="4.342"/><use xlink:href="#10" y="6.513"/><use xlink:href="#11" y="8.684"/><use xlink:href="#12" y="10.855"/><use xlink:href="#13" y="13.026"/><use xlink:href="#14" y="15.197"/><text y="19.038" class="f">$</text><text x="2.004" y="19.038" class="f">cle</text></svg><svg x="3440"><use xlink:href="#a"/><use xlink:href="#b" x="5.996" y="17.343"/><use xlink:href="#7"/><use xlink:href="#8" y="2.171"/><use xlink:href="#9" y="4.342"/><use xlink:href="#10" y="6.513"/><use xlink:href="#11" y="8.684"/><use xlink:href="#12" y="10.855"/><use xlink:href="#13" y="13.026"/><use xlink:href="#14" y="15.197"/><text y="19.038" class="f">$</text><text x="2.004" y="19.038" class="f">clea</text></svg><svg x="3526"><use xlink:href="#a"/><use xlink:href="#b" x="6.996" y="17.343"/><use xlink:href="#7"/><use xlink:href="#8" y="2.171"/><use xlink:href="#9" y="4.342"/><use xlink:href="#10" y="6.513"/><use xlink:href="#11" y="8.684"/><use xlink:href="#12" y="10.855"/><use xlink:href="#13" y="13.026"/><use xlink:href="#14" y="15.197"/><use xlink:href="#15" y="17.368"/></svg><svg x="3612"><use xlink:href="#a"/><use xlink:href="#b" x="-.004" y="19.514"/><use xlink:href="#7"/><use xlink:href="#8" y="2.171"/><use xlink:href="#9" y="4.342"/><use xlink:href="#10" y="6.513"/><use xlink:href="#11" y="8.684"/><use xlink:href="#12" y="10.855"/><use xlink:href="#13" y="13.026"/><use xlink:href="#14" y="15.197"/><use xlink:href="#15" y="17.368"/></svg><svg x="3698"><use xlink:href="#a"/><use xlink:href="#b" x="-.004" y="21.685"/><use xlink:href="#7"/><use xlink:href="#8" y="2.171"/><use xlink:href="#9" y="4.342"/><use xlink:href="#10" y="6.513"/><use xlink:href="#11" y="8.684"/><use xlink:href="#12" y="10.855"/><use xlink:href="#13" y="13.026"/><use xlink:href="#14" y="15.197"/><use xlink:href="#15" y="17.368"/><text y="21.209" class="f">TERM</text><text x="5.01" y="21.209" class="f">environment</text><text x="17.034" y="21.209" class="f">variable</text><text x="26.052" y="21.209" class="f">not</text><text x="30.06" y="21.209" class="f">set.</text></svg></svg></g></g></svg></svg>